<svg width="321" height="229" viewBox="0 0 321 229" fill="none" xmlns="http://www.w3.org/2000/svg">
<path d="M298.071 0C310.734 4.42607e-06 321 10.2527 321 22.9V206.1C321 218.747 310.734 229 298.071 229H22.9286C10.2655 229 1.84674e-07 218.747 0 206.1V22.9C2.95478e-06 10.2527 10.2655 5.53259e-07 22.9286 0H298.071ZM130.054 116.766H130.064C126.4 122.42 124.273 129.16 124.273 136.397C124.273 156.379 140.493 172.579 160.5 172.579C180.507 172.579 196.727 156.379 196.727 136.397C196.727 129.16 194.6 122.42 190.936 116.766H190.946L160.5 56.334L130.054 116.766Z" fill="white"/>
</svg>
